<svg width="24" height="25" viewBox="0 0 24 25" fill="none" xmlns="http://www.w3.org/2000/svg">
<g id="file-07">
<path id="Icon" d="M14 2.61377V6.74431C14 7.30436 14 7.58439 14.109 7.7983C14.2049 7.98646 14.3578 8.13944 14.546 8.23532C14.7599 8.34431 15.0399 8.34431 15.6 8.34431H19.7305M8 15.3442V18.3442M16 13.3442V18.3442M12 10.8442V18.3442M20 10.3325V17.5442C20 19.2244 20 20.0645 19.673 20.7062C19.3854 21.2707 18.9265 21.7296 18.362 22.0173C17.7202 22.3442 16.8802 22.3442 15.2 22.3442H8.8C7.11984 22.3442 6.27976 22.3442 5.63803 22.0173C5.07354 21.7296 4.6146 21.2707 4.32698 20.7062C4 20.0645 4 19.2244 4 17.5442V7.14424C4 5.46408 4 4.624 4.32698 3.98227C4.6146 3.41778 5.07354 2.95884 5.63803 2.67122C6.27976 2.34424 7.11984 2.34424 8.8 2.34424H12.0118C12.7455 2.34424 13.1124 2.34424 13.4577 2.42713C13.7638 2.50062 14.0564 2.62183 14.3249 2.78632C14.6276 2.97184 14.887 3.23127 15.4059 3.75013L18.5941 6.93835C19.113 7.45721 19.3724 7.71663 19.5579 8.01938C19.7224 8.2878 19.8436 8.58043 19.9171 8.88654C20 9.23181 20 9.59869 20 10.3325Z" stroke="#475467" stroke-width="2" stroke-linecap="round" stroke-linejoin="round"/>
</g>
</svg>
